# Blender v3.2.1 OBJ File: ''
# www.blender.org
mtllib christmas_tree_new.mtl
o +45
v -0.883883 -0.500000 0.883883
v 0.883883 -0.500000 -0.883883
v 0.883883 3.125000 -0.883883
v -0.883883 3.125000 0.883884
v 0.062500 2.625000 -0.062499
v 0.062500 2.625000 0.062501
v 0.062500 -0.500000 0.062500
v 0.062500 -0.500000 -0.062500
v -0.062500 -0.500000 0.062500
v -0.062500 2.625000 0.062501
v -0.062500 2.625000 -0.062499
v -0.062500 -0.500000 -0.062500
v -1.250000 -0.500000 0.000000
v 1.250000 -0.500000 0.000000
v 1.250000 3.125000 0.000001
v -1.250000 3.125000 0.000001
v -0.883883 -0.500000 -0.883883
v 0.883883 -0.500000 0.883883
v 0.883883 3.125000 0.883884
v -0.883883 3.125000 -0.883883
v 0.000000 -0.500000 1.250000
v 0.000000 -0.500000 -1.250000
v -0.000000 3.125000 -1.249999
v -0.000000 3.125000 1.250001
v -0.979153 1.263232 -0.183657
v -0.397748 1.562500 0.397748
v 0.397748 1.562500 -0.397747
v -0.183658 1.263233 -0.979152
v -0.183658 1.263232 0.979153
v 0.397748 1.562500 0.397748
v -0.397748 1.562500 -0.397747
v -0.979153 1.263232 0.183658
v 0.979153 1.263232 0.183658
v 0.397748 1.562500 -0.397747
v -0.397748 1.562500 0.397748
v 0.183658 1.263232 0.979153
v 0.183658 1.263233 -0.979152
v -0.397748 1.562500 -0.397747
v 0.397748 1.562500 0.397748
v 0.979153 1.263232 -0.183657
v 1.476080 0.312257 0.114910
v 0.061867 0.312257 -1.299304
v -0.698370 1.065076 -0.539067
v 0.715844 1.065076 0.875147
v 0.114910 0.312257 -1.476080
v -1.299304 0.312257 -0.061867
v -0.539067 1.065076 0.698370
v 0.875147 1.065076 -0.715843
v -0.114910 0.312256 1.476081
v 1.299304 0.312257 0.061867
v 0.539067 1.065076 -0.698370
v -0.875147 1.065076 0.715844
v -1.476080 0.312257 -0.114910
v -0.061867 0.312256 1.299304
v 0.698370 1.065076 0.539067
v -0.715844 1.065076 -0.875146
v 1.402611 -0.180694 0.636711
v 0.637244 -0.180694 -1.211048
v -0.438338 0.425351 -0.765528
v 0.327029 0.425351 1.082232
v -0.636711 -0.180695 1.402611
v 1.211048 -0.180694 0.637244
v 0.765528 0.425351 -0.438338
v -1.082231 0.425351 0.327029
v -1.402611 -0.180694 -0.636711
v -0.637244 -0.180695 1.211048
v 0.438338 0.425351 0.765528
v -0.327029 0.425351 -1.082231
v 0.636711 -0.180694 -1.402611
v -1.211048 -0.180694 -0.637244
v -0.765528 0.425351 0.438338
v 1.082231 0.425351 -0.327029
v 0.000000 2.062500 -0.500000
v -0.574533 1.580409 -0.500000
v -0.574533 1.580409 0.500000
v -0.000000 2.062500 0.500000
v -0.500000 2.062500 0.000000
v -0.500000 1.580409 0.574534
v 0.500000 1.580409 0.574534
v 0.500000 2.062500 0.000000
v 0.000000 2.062500 0.500000
v 0.574533 1.580409 0.500000
v 0.574533 1.580409 -0.500000
v -0.000000 2.062500 -0.500000
v 0.500000 2.062500 0.000000
v 0.500000 1.580409 -0.574533
v -0.500000 1.580409 -0.574533
v -0.500000 2.062500 0.000000
v 0.353553 2.625000 0.353554
v 0.759810 2.142909 -0.052703
v 0.052703 2.142910 -0.759809
v -0.353553 2.625000 -0.353553
v -0.353553 2.625000 0.353554
v 0.052703 2.142909 0.759810
v 0.759810 2.142909 0.052703
v 0.353553 2.625000 -0.353553
v -0.353553 2.625000 -0.353553
v -0.759810 2.142909 0.052703
v -0.052703 2.142909 0.759810
v 0.353553 2.625000 0.353554
v 0.353553 2.625000 -0.353553
v -0.052703 2.142910 -0.759809
v -0.759810 2.142909 -0.052703
v -0.353553 2.625000 0.353554
v 0.822231 0.950732 -0.562500
v 0.000000 1.250000 -0.562500
v -0.000000 1.250000 0.562500
v 0.822231 0.950732 0.562500
v -0.562500 0.950733 -0.822231
v -0.562500 1.250000 0.000000
v 0.562500 1.250000 0.000000
v 0.562500 0.950732 -0.822231
v -0.822231 0.950732 0.562500
v -0.000000 1.250000 0.562500
v 0.000000 1.250000 -0.562500
v -0.822231 0.950733 -0.562500
v 0.562500 0.950732 0.822231
v 0.562500 1.250000 0.000000
v -0.562500 1.250000 0.000000
v -0.562500 0.950732 0.822231
v -0.887419 -0.500000 0.880348
v 0.880348 -0.500000 -0.887419
v 0.880348 3.125000 -0.887418
v -0.887419 3.125000 0.880349
v -1.250000 -0.500000 -0.005000
v 1.250000 -0.500000 -0.005000
v 1.250000 3.125000 -0.004999
v -1.250000 3.125000 -0.004999
v -0.880348 -0.500000 -0.887419
v 0.887419 -0.500000 0.880348
v 0.887419 3.125000 0.880349
v -0.880348 3.125000 -0.887418
v -0.005000 -0.500000 1.250000
v -0.005000 -0.500000 -1.250000
v -0.005000 3.125000 -1.249999
v -0.005000 3.125000 1.250001
v -0.977943 1.258534 -0.182448
v -0.396538 1.557801 0.398957
v 0.398957 1.557801 -0.396538
v -0.182448 1.258534 -0.977943
v -0.182448 1.258534 0.977944
v 0.398957 1.557801 0.396539
v -0.396538 1.557801 -0.398956
v -0.977943 1.258534 0.182449
v 0.977943 1.258534 0.182449
v 0.396538 1.557801 -0.398956
v -0.398957 1.557801 0.396539
v 0.182448 1.258534 0.977944
v 0.182448 1.258534 -0.977943
v -0.398957 1.557801 -0.396538
v 0.396538 1.557801 0.398957
v 0.977943 1.258534 -0.182448
v 1.474053 0.308161 0.116938
v 0.059839 0.308161 -1.297276
v -0.700398 1.060980 -0.537039
v 0.713816 1.060980 0.877175
v 0.116938 0.308161 -1.474052
v -1.297276 0.308161 -0.059839
v -0.537039 1.060980 0.700398
v 0.877174 1.060980 -0.713816
v -0.116938 0.308161 1.474053
v 1.297276 0.308161 0.059839
v 0.537039 1.060980 -0.700397
v -0.877174 1.060980 0.713816
v -1.474053 0.308161 -0.116938
v -0.059839 0.308161 1.297276
v 0.700398 1.060980 0.537039
v -0.713816 1.060980 -0.877174
v 1.400478 -0.185129 0.637594
v 0.635111 -0.185129 -1.210165
v -0.440471 0.420916 -0.764644
v 0.324896 0.420915 1.083115
v -0.637594 -0.185130 1.400478
v 1.210165 -0.185129 0.635111
v 0.764644 0.420916 -0.440471
v -1.083115 0.420916 0.324896
v -1.400478 -0.185129 -0.637594
v -0.635111 -0.185130 1.210165
v 0.440471 0.420916 0.764644
v -0.324896 0.420916 -1.083115
v 0.637594 -0.185129 -1.400478
v -1.210165 -0.185129 -0.635111
v -0.764644 0.420916 0.440471
v 1.083115 0.420916 -0.324896
v 0.003214 2.058670 -0.500000
v -0.571319 1.576579 -0.500000
v -0.571319 1.576579 0.500000
v 0.003214 2.058670 0.500000
v -0.500000 2.058670 -0.003214
v -0.500000 1.576579 0.571320
v 0.500000 1.576579 0.571320
v 0.500000 2.058670 -0.003214
v -0.003214 2.058670 0.500000
v 0.571319 1.576579 0.500000
v 0.571319 1.576579 -0.500000
v -0.003214 2.058670 -0.500000
v 0.500000 2.058670 0.003214
v 0.500000 1.576579 -0.571319
v -0.500000 1.576579 -0.571319
v -0.500000 2.058670 0.003214
v 0.351281 2.621170 0.355826
v 0.757537 2.139079 -0.050430
v 0.050430 2.139079 -0.757537
v -0.355826 2.621170 -0.351280
v -0.355826 2.621170 0.351281
v 0.050430 2.139079 0.757538
v 0.757537 2.139079 0.050431
v 0.351281 2.621170 -0.355825
v -0.351281 2.621170 -0.355825
v -0.757537 2.139079 0.050431
v -0.050430 2.139079 0.757538
v 0.355826 2.621170 0.351281
v 0.355826 2.621170 -0.351280
v -0.050430 2.139079 -0.757537
v -0.757537 2.139079 -0.050430
v -0.351281 2.621170 0.355826
v 0.820521 0.946034 -0.562500
v -0.001710 1.245302 -0.562500
v -0.001710 1.245301 0.562500
v 0.820521 0.946034 0.562500
v -0.562500 0.946034 -0.820521
v -0.562500 1.245301 0.001710
v 0.562500 1.245301 0.001710
v 0.562500 0.946034 -0.820521
v -0.820521 0.946034 0.562500
v 0.001710 1.245301 0.562500
v 0.001710 1.245302 -0.562500
v -0.820521 0.946034 -0.562500
v 0.562500 0.946034 0.820521
v 0.562500 1.245301 -0.001710
v -0.562500 1.245301 -0.001710
v -0.562500 0.946034 0.820521
vt 0.082595 0.030480
vt 0.439724 0.036223
vt 0.435263 1.000000
vt 0.078133 0.997110
vt 0.071429 0.866667
vt 0.053571 0.866667
vt 0.053571 0.033333
vt 0.071429 0.033333
vt 0.035714 0.033333
vt 0.035714 0.866667
vt 0.017857 0.866667
vt 0.017857 0.033333
vt 0.053571 0.033333
vt 0.071429 0.033333
vt 0.071429 0.066667
vt 0.053571 0.066667
vt 0.071429 0.833333
vt 0.071429 0.866667
vt 0.053571 0.866667
vt 0.053571 0.833333
vt 0.000000 0.866667
vt 0.000000 0.033333
vt 0.448666 0.030480
vt 0.805796 0.036223
vt 0.801334 1.000000
vt 0.444204 0.997110
vt 0.082595 0.030480
vt 0.439724 0.036223
vt 0.435263 1.000000
vt 0.078133 0.997110
vt 0.448666 0.030480
vt 0.805796 0.036223
vt 0.801334 1.000000
vt 0.444204 0.997110
vt 0.973214 0.216667
vt 0.973214 0.450000
vt 0.812500 0.450000
vt 0.812500 0.216667
vt 0.973214 0.216667
vt 0.973214 0.450000
vt 0.812500 0.450000
vt 0.812500 0.216667
vt 0.973214 0.216667
vt 0.973214 0.450000
vt 0.812500 0.450000
vt 0.812500 0.216667
vt 0.973214 0.216667
vt 0.973214 0.450000
vt 0.812500 0.450000
vt 0.812500 0.216667
vt 1.000000 0.466667
vt 1.000000 1.000000
vt 0.812500 1.000000
vt 0.812500 0.466667
vt 1.000000 0.466667
vt 1.000000 1.000000
vt 0.812500 1.000000
vt 0.812500 0.466667
vt 1.000000 0.466667
vt 1.000000 1.000000
vt 0.812500 1.000000
vt 0.812500 0.466667
vt 1.000000 0.466667
vt 1.000000 1.000000
vt 0.812500 1.000000
vt 0.812500 0.466667
vt 1.000000 0.466667
vt 1.000000 1.000000
vt 0.812500 1.000000
vt 0.812500 0.466667
vt 1.000000 0.466667
vt 1.000000 1.000000
vt 0.812500 1.000000
vt 0.812500 0.466667
vt 1.000000 0.466667
vt 1.000000 1.000000
vt 0.812500 1.000000
vt 0.812500 0.466667
vt 1.000000 0.466667
vt 1.000000 1.000000
vt 0.812500 1.000000
vt 0.812500 0.466667
vt 0.955357 0.000000
vt 0.955357 0.200000
vt 0.812500 0.200000
vt 0.812500 0.000000
vt 0.955357 0.000000
vt 0.955357 0.200000
vt 0.812500 0.200000
vt 0.812500 0.000000
vt 0.955357 0.000000
vt 0.955357 0.200000
vt 0.812500 0.200000
vt 0.812500 0.000000
vt 0.955357 0.000000
vt 0.955357 0.200000
vt 0.812500 0.200000
vt 0.812500 0.000000
vt 0.955357 0.000000
vt 0.955357 0.200000
vt 0.812500 0.200000
vt 0.812500 0.000000
vt 0.955357 0.000000
vt 0.955357 0.200000
vt 0.812500 0.200000
vt 0.812500 0.000000
vt 0.955357 0.000000
vt 0.955357 0.200000
vt 0.812500 0.200000
vt 0.812500 0.000000
vt 0.955357 0.000000
vt 0.955357 0.200000
vt 0.812500 0.200000
vt 0.812500 0.000000
vt 0.973214 0.216667
vt 0.973214 0.450000
vt 0.812500 0.450000
vt 0.812500 0.216667
vt 0.973214 0.216667
vt 0.973214 0.450000
vt 0.812500 0.450000
vt 0.812500 0.216667
vt 0.973214 0.216667
vt 0.973214 0.450000
vt 0.812500 0.450000
vt 0.812500 0.216667
vt 0.973214 0.216667
vt 0.973214 0.450000
vt 0.812500 0.450000
vt 0.812500 0.216667
vt 0.082595 0.030480
vt 0.078133 0.997110
vt 0.435263 1.000000
vt 0.439724 0.036223
vt 0.448666 0.030480
vt 0.444204 0.997110
vt 0.801334 1.000000
vt 0.805796 0.036223
vt 0.082595 0.030480
vt 0.078133 0.997110
vt 0.435263 1.000000
vt 0.439724 0.036223
vt 0.448666 0.030480
vt 0.444204 0.997110
vt 0.801334 1.000000
vt 0.805796 0.036223
vt 0.973214 0.216667
vt 0.973214 0.450000
vt 0.812500 0.450000
vt 0.812500 0.216667
vt 0.973214 0.216667
vt 0.973214 0.450000
vt 0.812500 0.450000
vt 0.812500 0.216667
vt 0.973214 0.216667
vt 0.973214 0.450000
vt 0.812500 0.450000
vt 0.812500 0.216667
vt 0.973214 0.216667
vt 0.973214 0.450000
vt 0.812500 0.450000
vt 0.812500 0.216667
vt 1.000000 0.466667
vt 1.000000 1.000000
vt 0.812500 1.000000
vt 0.812500 0.466667
vt 1.000000 0.466667
vt 1.000000 1.000000
vt 0.812500 1.000000
vt 0.812500 0.466667
vt 1.000000 0.466667
vt 1.000000 1.000000
vt 0.812500 1.000000
vt 0.812500 0.466667
vt 1.000000 0.466667
vt 1.000000 1.000000
vt 0.812500 1.000000
vt 0.812500 0.466667
vt 1.000000 0.466667
vt 1.000000 1.000000
vt 0.812500 1.000000
vt 0.812500 0.466667
vt 1.000000 0.466667
vt 1.000000 1.000000
vt 0.812500 1.000000
vt 0.812500 0.466667
vt 1.000000 0.466667
vt 1.000000 1.000000
vt 0.812500 1.000000
vt 0.812500 0.466667
vt 1.000000 0.466667
vt 1.000000 1.000000
vt 0.812500 1.000000
vt 0.812500 0.466667
vt 0.955357 0.000000
vt 0.955357 0.200000
vt 0.812500 0.200000
vt 0.812500 0.000000
vt 0.955357 0.000000
vt 0.955357 0.200000
vt 0.812500 0.200000
vt 0.812500 0.000000
vt 0.955357 0.000000
vt 0.955357 0.200000
vt 0.812500 0.200000
vt 0.812500 0.000000
vt 0.955357 0.000000
vt 0.955357 0.200000
vt 0.812500 0.200000
vt 0.812500 0.000000
vt 0.955357 0.000000
vt 0.955357 0.200000
vt 0.812500 0.200000
vt 0.812500 0.000000
vt 0.955357 0.000000
vt 0.955357 0.200000
vt 0.812500 0.200000
vt 0.812500 0.000000
vt 0.955357 0.000000
vt 0.955357 0.200000
vt 0.812500 0.200000
vt 0.812500 0.000000
vt 0.955357 0.000000
vt 0.955357 0.200000
vt 0.812500 0.200000
vt 0.812500 0.000000
vt 0.973214 0.216667
vt 0.973214 0.450000
vt 0.812500 0.450000
vt 0.812500 0.216667
vt 0.973214 0.216667
vt 0.973214 0.450000
vt 0.812500 0.450000
vt 0.812500 0.216667
vt 0.973214 0.216667
vt 0.973214 0.450000
vt 0.812500 0.450000
vt 0.812500 0.216667
vt 0.973214 0.216667
vt 0.973214 0.450000
vt 0.812500 0.450000
vt 0.812500 0.216667
vn -0.6565 -0.3714 0.6565
vn 0.6565 -0.3714 -0.6565
vn 0.2626 0.9285 -0.2626
vn -0.2626 0.9285 0.2626
vn 0.0238 0.9994 -0.0238
vn 0.0238 0.9994 0.0238
vn 0.1231 -0.9847 0.1231
vn 0.1231 -0.9847 -0.1231
vn -0.1231 -0.9847 0.1231
vn -0.0238 0.9994 0.0238
vn -0.0238 0.9994 -0.0238
vn -0.1231 -0.9847 -0.1231
vn -0.9285 -0.3714 -0.0000
vn 0.9285 -0.3714 -0.0000
vn 0.3714 0.9285 0.0000
vn -0.3714 0.9285 0.0000
vn -0.6565 -0.3714 -0.6565
vn 0.6565 -0.3714 0.6565
vn 0.2626 0.9285 0.2626
vn -0.2626 0.9285 -0.2626
vn -0.0000 -0.3714 0.9285
vn -0.0000 -0.3714 -0.9285
vn -0.0000 0.9285 -0.3714
vn -0.0000 0.9285 0.3714
vn -0.6086 0.7852 -0.1141
vn -0.2395 0.9409 0.2395
vn 0.2395 0.9409 -0.2395
vn -0.1141 0.7852 -0.6086
vn -0.1141 0.7852 0.6086
vn 0.2395 0.9409 0.2395
vn -0.2395 0.9409 -0.2395
vn -0.6086 0.7852 0.1141
vn 0.6086 0.7852 0.1141
vn 0.1141 0.7852 0.6086
vn 0.1141 0.7852 -0.6086
vn 0.6086 0.7852 -0.1141
vn 0.9755 0.2063 0.0759
vn 0.0462 0.2334 -0.9713
vn -0.5049 0.7701 -0.3898
vn 0.4608 0.6857 0.5634
vn 0.0759 0.2063 -0.9755
vn -0.9713 0.2334 -0.0462
vn -0.3898 0.7701 0.5049
vn 0.5634 0.6857 -0.4608
vn -0.0759 0.2063 0.9755
vn 0.9713 0.2334 0.0462
vn 0.3898 0.7701 -0.5049
vn -0.5634 0.6857 0.4608
vn -0.9755 0.2063 -0.0759
vn -0.0462 0.2334 0.9713
vn 0.5049 0.7701 0.3898
vn -0.4608 0.6857 -0.5634
vn 0.9044 -0.1165 0.4106
vn 0.4616 -0.1309 -0.8774
vn -0.4476 0.4343 -0.7817
vn 0.2707 0.3521 0.8959
vn -0.4106 -0.1165 0.9044
vn 0.8774 -0.1309 0.4616
vn 0.7817 0.4343 -0.4476
vn -0.8959 0.3521 0.2707
vn -0.9044 -0.1165 -0.4106
vn -0.4616 -0.1309 0.8774
vn 0.4476 0.4343 0.7817
vn -0.2707 0.3521 -0.8959
vn 0.4106 -0.1165 -0.9044
vn -0.8774 -0.1309 -0.4616
vn -0.7817 0.4343 0.4476
vn 0.8959 0.3521 -0.2707
vn 0.0000 0.9719 -0.2356
vn -0.3275 0.9009 -0.2850
vn -0.3275 0.9009 0.2850
vn 0.0000 0.9719 0.2356
vn -0.2356 0.9719 -0.0000
vn -0.2850 0.9009 0.3275
vn 0.2850 0.9009 0.3275
vn 0.2356 0.9719 -0.0000
vn 0.3275 0.9009 0.2850
vn 0.3275 0.9009 -0.2850
vn 0.2850 0.9009 -0.3275
vn -0.2850 0.9009 -0.3275
vn 0.1323 0.9823 0.1323
vn 0.3341 0.9423 -0.0232
vn 0.0232 0.9423 -0.3341
vn -0.1323 0.9823 -0.1323
vn -0.1323 0.9823 0.1323
vn 0.0232 0.9423 0.3341
vn 0.3341 0.9423 0.0232
vn 0.1323 0.9823 -0.1323
vn -0.3341 0.9423 0.0232
vn -0.0232 0.9423 0.3341
vn -0.0232 0.9423 -0.3341
vn -0.3341 0.9423 -0.0232
vn 0.5971 0.6904 -0.4085
vn 0.0000 0.9119 -0.4104
vn 0.0000 0.9119 0.4104
vn 0.5971 0.6904 0.4085
vn -0.4085 0.6904 -0.5971
vn -0.4104 0.9119 -0.0000
vn 0.4104 0.9119 -0.0000
vn 0.4085 0.6904 -0.5971
vn -0.5971 0.6904 0.4085
vn -0.5971 0.6904 -0.4085
vn 0.4085 0.6904 0.5971
vn -0.4085 0.6904 0.5971
vn -0.6591 -0.3714 0.6539
vn -0.2637 0.9285 0.2615
vn 0.2615 0.9285 -0.2637
vn 0.6539 -0.3714 -0.6591
vn -0.9285 -0.3714 -0.0037
vn -0.3714 0.9285 -0.0015
vn 0.3714 0.9285 -0.0015
vn 0.9285 -0.3714 -0.0037
vn -0.6539 -0.3714 -0.6591
vn -0.2615 0.9285 -0.2637
vn 0.2637 0.9285 0.2615
vn 0.6591 -0.3714 0.6539
vn -0.0037 -0.3714 0.9285
vn -0.0015 0.9285 0.3714
vn -0.0015 0.9285 -0.3714
vn -0.0037 -0.3714 -0.9285
vn -0.6096 0.7845 -0.1137
vn -0.2395 0.9406 0.2409
vn 0.2409 0.9406 -0.2394
vn -0.1137 0.7845 -0.6096
vn -0.1137 0.7845 0.6096
vn 0.2409 0.9406 0.2395
vn -0.2395 0.9406 -0.2409
vn -0.6096 0.7845 0.1137
vn 0.6096 0.7845 0.1137
vn 0.2395 0.9406 -0.2409
vn -0.2409 0.9406 0.2395
vn 0.1137 0.7845 0.6096
vn 0.1137 0.7845 -0.6096
vn -0.2409 0.9406 -0.2395
vn 0.2395 0.9406 0.2409
vn 0.6096 0.7845 -0.1137
vn 0.9759 0.2040 0.0774
vn 0.0448 0.2309 -0.9719
vn -0.5075 0.7687 -0.3892
vn 0.4603 0.6842 0.5657
vn 0.0774 0.2040 -0.9759
vn -0.9719 0.2309 -0.0448
vn -0.3892 0.7687 0.5075
vn 0.5657 0.6842 -0.4603
vn -0.0774 0.2040 0.9759
vn 0.9719 0.2309 0.0448
vn 0.3892 0.7687 -0.5075
vn -0.5657 0.6842 0.4603
vn -0.9759 0.2040 -0.0774
vn -0.0448 0.2309 0.9719
vn 0.5075 0.7687 0.3892
vn -0.4603 0.6842 -0.5657
vn 0.9036 -0.1194 0.4114
vn 0.4604 -0.1342 -0.8775
vn -0.4505 0.4305 -0.7821
vn 0.2693 0.3488 0.8977
vn -0.4114 -0.1194 0.9036
vn 0.8775 -0.1342 0.4604
vn 0.7821 0.4305 -0.4505
vn -0.8977 0.3488 0.2693
vn -0.9036 -0.1194 -0.4114
vn -0.4604 -0.1342 0.8775
vn 0.4505 0.4305 0.7821
vn -0.2693 0.3488 -0.8977
vn 0.4114 -0.1194 -0.9036
vn -0.8775 -0.1342 -0.4604
vn -0.7821 0.4305 0.4505
vn 0.8977 0.3488 -0.2693
vn 0.0015 0.9718 -0.2360
vn -0.3265 0.9010 -0.2857
vn -0.3265 0.9010 0.2857
vn 0.0015 0.9718 0.2360
vn -0.2360 0.9718 -0.0015
vn -0.2857 0.9010 0.3265
vn 0.2857 0.9010 0.3265
vn 0.2360 0.9718 -0.0015
vn -0.0015 0.9718 0.2360
vn 0.3265 0.9010 0.2857
vn 0.3265 0.9010 -0.2857
vn -0.0015 0.9718 -0.2360
vn 0.2360 0.9718 0.0015
vn 0.2857 0.9010 -0.3265
vn -0.2857 0.9010 -0.3265
vn -0.2360 0.9718 0.0015
vn 0.1316 0.9823 0.1333
vn 0.3337 0.9424 -0.0222
vn 0.0222 0.9424 -0.3337
vn -0.1333 0.9823 -0.1316
vn -0.1333 0.9823 0.1316
vn 0.0222 0.9424 0.3337
vn 0.3337 0.9424 0.0222
vn 0.1316 0.9823 -0.1333
vn -0.1316 0.9823 -0.1333
vn -0.3337 0.9424 0.0222
vn -0.0222 0.9424 0.3337
vn 0.1333 0.9823 0.1316
vn 0.1333 0.9823 -0.1316
vn -0.0222 0.9424 -0.3337
vn -0.3337 0.9424 -0.0222
vn -0.1316 0.9823 0.1333
vn 0.5977 0.6891 -0.4097
vn -0.0012 0.9113 -0.4117
vn -0.0012 0.9113 0.4117
vn 0.5977 0.6891 0.4097
vn -0.4097 0.6891 -0.5977
vn -0.4117 0.9113 0.0012
vn 0.4117 0.9113 0.0012
vn 0.4097 0.6891 -0.5977
vn -0.5977 0.6891 0.4097
vn 0.0012 0.9113 0.4117
vn 0.0012 0.9113 -0.4117
vn -0.5977 0.6891 -0.4097
vn 0.4097 0.6891 0.5977
vn 0.4117 0.9113 -0.0012
vn -0.4117 0.9113 -0.0012
vn -0.4097 0.6891 0.5977
usemtl Material
s off
f 1/1/1 2/2/2 3/3/3 4/4/4
f 5/5/5 6/6/6 7/7/7 8/8/8
f 9/9/9 10/10/10 11/11/11 12/12/12
f 10/13/10 6/14/6 5/15/5 11/16/11
f 8/17/8 7/18/7 9/19/9 12/20/12
f 7/7/7 6/6/6 10/10/10 9/9/9
f 11/11/11 5/21/5 8/22/8 12/12/12
f 13/23/13 14/24/14 15/25/15 16/26/16
f 17/27/17 18/28/18 19/29/19 20/30/20
f 21/31/21 22/32/22 23/33/23 24/34/24
f 25/35/25 26/36/26 27/37/27 28/38/28
f 29/39/29 30/40/30 31/41/31 32/42/32
f 33/43/33 34/44/27 35/45/26 36/46/34
f 37/47/35 38/48/31 39/49/30 40/50/36
f 41/51/37 42/52/38 43/53/39 44/54/40
f 45/55/41 46/56/42 47/57/43 48/58/44
f 49/59/45 50/60/46 51/61/47 52/62/48
f 53/63/49 54/64/50 55/65/51 56/66/52
f 57/67/53 58/68/54 59/69/55 60/70/56
f 61/71/57 62/72/58 63/73/59 64/74/60
f 65/75/61 66/76/62 67/77/63 68/78/64
f 69/79/65 70/80/66 71/81/67 72/82/68
f 73/83/69 74/84/70 75/85/71 76/86/72
f 77/87/73 78/88/74 79/89/75 80/90/76
f 81/91/72 82/92/77 83/93/78 84/94/69
f 85/95/76 86/96/79 87/97/80 88/98/73
f 89/99/81 90/100/82 91/101/83 92/102/84
f 93/103/85 94/104/86 95/105/87 96/106/88
f 97/107/84 98/108/89 99/109/90 100/110/81
f 101/111/88 102/112/91 103/113/92 104/114/85
f 105/115/93 106/116/94 107/117/95 108/118/96
f 109/119/97 110/120/98 111/121/99 112/122/100
f 113/123/101 114/124/95 115/125/94 116/126/102
f 117/127/103 118/128/99 119/129/98 120/130/104
f 121/131/105 124/132/106 123/133/107 122/134/108
f 125/135/109 128/136/110 127/137/111 126/138/112
f 129/139/113 132/140/114 131/141/115 130/142/116
f 133/143/117 136/144/118 135/145/119 134/146/120
f 137/147/121 138/148/122 139/149/123 140/150/124
f 141/151/125 142/152/126 143/153/127 144/154/128
f 145/155/129 146/156/130 147/157/131 148/158/132
f 149/159/133 150/160/134 151/161/135 152/162/136
f 153/163/137 154/164/138 155/165/139 156/166/140
f 157/167/141 158/168/142 159/169/143 160/170/144
f 161/171/145 162/172/146 163/173/147 164/174/148
f 165/175/149 166/176/150 167/177/151 168/178/152
f 169/179/153 170/180/154 171/181/155 172/182/156
f 173/183/157 174/184/158 175/185/159 176/186/160
f 177/187/161 178/188/162 179/189/163 180/190/164
f 181/191/165 182/192/166 183/193/167 184/194/168
f 185/195/169 186/196/170 187/197/171 188/198/172
f 189/199/173 190/200/174 191/201/175 192/202/176
f 193/203/177 194/204/178 195/205/179 196/206/180
f 197/207/181 198/208/182 199/209/183 200/210/184
f 201/211/185 202/212/186 203/213/187 204/214/188
f 205/215/189 206/216/190 207/217/191 208/218/192
f 209/219/193 210/220/194 211/221/195 212/222/196
f 213/223/197 214/224/198 215/225/199 216/226/200
f 217/227/201 218/228/202 219/229/203 220/230/204
f 221/231/205 222/232/206 223/233/207 224/234/208
f 225/235/209 226/236/210 227/237/211 228/238/212
f 229/239/213 230/240/214 231/241/215 232/242/216
